# xmcd
#
# Track frame offsets: 
#        150
#        19982
#        37959
#        50522
#        59270
#        72761
#        79360
#        102100
#        123527
#        157110
#        173460
#        198605
#        220211
#        235538
#        246811
#        264661
#
# Disc length: 3767 seconds
#
# Revision: 0
# Processed by: cddbd v1.5.2PL0 Copyright (c) Steve Scherf et al.
# Submitted via: ExactAudioCopy v1.0b1
#
DISCID=dd0eb510
DTITLE=Peter Holman, Parley of Instruments - Fairest Isle: A New Natio
DTITLE=nal Songbook
DYEAR=1999
DGENRE=Vocal
TTITLE0=Medley Overture, ensemble      [Richard Charke] 
TTITLE1=King Arthur, semi-opera   Fairest isle. All isles excelling  Z
TTITLE1=628   [Henry Purcell] 
TTITLE2=The Lass of Richmond Hill, voice and ensemble      [James Hook] 
TTITLE3=The Mock Marriage, incidental music   Oh! how you protest...'T
TTITLE3=was within a furlong...Man is for the woman made  Z 605   [Hen
TTITLE3=ry 
TTITLE4=When that I was a little tiny boy, voice and ensemble      [Jose
TTITLE4=ph Vernon] 
TTITLE5=Beggars' Opera, ballad opera   Cease your funning   [John Gay]
TTITLE5=
TTITLE6=The Farmer, opera   The Ploughboy   [William Shield] 
TTITLE7=The British Grenadiers, voice and ensemble      [Unspecified]
TTITLE8=Overture, G Major   Larghetto - Allegro (Country Bumpkin) - An
TTITLE8=dantino e cantabile - Allegro   [Francesco Barsanti] 
TTITLE9=Sally in our alley, voice and ensemble      [Henry Carey]
TTITLE10=The Broom of Cowdenknowes, voice and ensemble      [Johann Chri
TTITLE10=stian Bach] 
TTITLE11=Farewell to Lochaber, voice and ensemble      [Johann Christian
TTITLE11=Bach]
TTITLE12=The Melancholy Nymph, voice and ensemble      [George Frideric 
TTITLE12=Handel] 
TTITLE13=Love in a Village, ballad opera   The Miller of Dee   [Thomas
TTITLE13=Augustine Arne] 
TTITLE14=The Oddities, musical variety   Tom Bowling   [Charles Dibdin
TTITLE14=] 
TTITLE15=Rule, Britannia      [Thomas Augustine Arne]
EXTD=
EXTT0=
EXTT1=
EXTT2=
EXTT3=
EXTT4=
EXTT5=
EXTT6=
EXTT7=
EXTT8=
EXTT9=
EXTT10=
EXTT11=
EXTT12=
EXTT13=
EXTT14=
EXTT15=
PLAYORDER=
